<?xml version="1.0" encoding="UTF-8" standalone="no"?>
<svg
   xmlns:dc="http://purl.org/dc/elements/1.1/"
   xmlns:cc="http://creativecommons.org/ns#"
   xmlns:rdf="http://www.w3.org/1999/02/22-rdf-syntax-ns#"
   xmlns:svg="http://www.w3.org/2000/svg"
   xmlns="http://www.w3.org/2000/svg"
   viewBox="0 0 510.95999 169.06667"
   height="169.06667"
   width="510.95999"
   xml:space="preserve"
   id="svg2"
   version="1.1"><metadata
     id="metadata8"><rdf:RDF><cc:Work
         rdf:about=""><dc:format>image/svg+xml</dc:format><dc:type
           rdf:resource="http://purl.org/dc/dcmitype/StillImage" /></cc:Work></rdf:RDF></metadata><defs
     id="defs6" /><g
     transform="matrix(1.3333333,0,0,-1.3333333,0,169.06667)"
     id="g10"><g
       transform="scale(0.1)"
       id="g12"><path
         id="path14"
         style="fill:#398088;fill-opacity:1;fill-rule:nonzero;stroke:none"
         d="m 0,779.68 v 2.293 c 0,172.511 133.406,317.417 316.27,317.417 113.859,0 185.156,-42.55 242.656,-104.652 l -87.403,-93.152 c -42.546,44.852 -87.402,75.906 -156.406,75.906 -101.203,0 -175.957,-87.414 -175.957,-193.215 v -2.304 c 0,-108.106 74.754,-194.356 181.707,-194.356 65.551,0 113.86,29.903 157.563,74.758 L 562.383,579.57 C 502.578,512.863 432.422,465.715 313.965,465.715 133.406,465.715 0,607.168 0,779.68" /><path
         id="path16"
         style="fill:#398088;fill-opacity:1;fill-rule:nonzero;stroke:none"
         d="m 1649.1,700.324 v 386.416 h 139.16 V 741.73 c 0,-94.308 47.15,-147.207 129.95,-147.207 80.51,0 136.87,55.196 136.87,149.5 v 342.717 h 140.3 V 479.512 h -140.3 v 94.308 c -39.1,-57.511 -95.46,-106.953 -189.77,-106.953 -136.85,0 -216.21,92 -216.21,233.457" /><path
         id="path18"
         style="fill:#398088;fill-opacity:1;fill-rule:nonzero;stroke:none"
         d="m 2300,1086.74 h 139.16 V 949.883 c 37.95,90.857 108.11,152.957 215.06,148.357 V 951.035 h -8.06 c -121.9,0 -207,-79.355 -207,-240.359 V 479.512 H 2300 v 607.228" /><path
         id="path20"
         style="fill:#398088;fill-opacity:1;fill-rule:nonzero;stroke:none"
         d="m 2679.49,558.867 62.1,94.309 c 66.7,-49.453 136.86,-74.758 198.96,-74.758 59.8,0 94.3,25.305 94.3,65.547 v 2.305 c 0,47.148 -64.4,63.253 -135.7,85.109 -89.71,25.301 -189.77,62.098 -189.77,178.25 v 2.305 c 0,114.996 95.46,185.156 216.22,185.156 75.9,0 158.71,-26.45 223.11,-69 l -55.2,-98.91 c -58.66,35.656 -120.76,57.511 -171.36,57.511 -54.05,0 -85.11,-25.304 -85.11,-59.804 v -2.305 c 0,-44.855 65.56,-63.254 136.87,-86.25 88.54,-27.609 188.6,-67.852 188.6,-177.109 v -2.305 c 0,-127.656 -98.91,-190.91 -225.41,-190.91 -86.25,0 -181.71,31.055 -257.61,90.859" /><path
         id="path22"
         style="fill:#398088;fill-opacity:1;fill-rule:nonzero;stroke:none"
         d="m 3675.4,825.676 c -9.2,89.707 -62.1,159.863 -154.11,159.863 -85.1,0 -144.9,-65.559 -157.55,-159.863 z m -449.67,-44.844 v 2.297 c 0,173.66 123.06,316.261 296.71,316.261 193.21,0 290.97,-151.8 290.97,-326.617 0,-12.644 -1.15,-25.3 -2.31,-39.101 h -446.22 c 14.95,-98.906 85.11,-154.102 174.82,-154.102 67.85,0 116.15,25.293 164.45,72.453 l 81.66,-72.453 c -57.51,-69.004 -136.86,-113.855 -248.42,-113.855 -175.95,0 -311.66,127.656 -311.66,315.117" /><path
         id="path24"
         style="fill:#398088;fill-opacity:1;fill-rule:nonzero;stroke:none"
         d="m 1979.55,52.1484 34.46,40.9922 c 31.2,-27.0117 62.87,-42.3789 102.92,-42.3789 35.39,0 57.75,16.7696 57.75,40.9766 v 0.9336 c 0,23.2891 -13.04,35.8591 -73.58,49.8281 -69.39,16.762 -108.51,37.262 -108.51,97.328 v 0.934 c 0,55.886 46.57,94.539 111.3,94.539 47.5,0 85.23,-14.434 118.29,-40.985 l -30.73,-43.304 c -29.35,21.886 -58.68,33.527 -88.49,33.527 -33.53,0 -53.09,-17.23 -53.09,-38.648 v -0.93 c 0,-25.152 14.91,-36.332 77.77,-51.231 68.93,-16.769 104.32,-41.449 104.32,-95.4683 V 97.3281 C 2231.96,36.3203 2183.99,0 2115.54,0 c -49.83,0 -96.87,17.2305 -135.99,52.1484" /><path
         id="path26"
         style="fill:#398088;fill-opacity:1;fill-rule:nonzero;stroke:none"
         d="m 2290.18,330.641 h 241.7 V 279.414 H 2347.46 V 194.66 h 163.46 V 143.43 H 2347.46 V 55.8789 H 2534.2 V 4.64844 H 2290.18 V 330.641" /><path
         id="path28"
         style="fill:#398088;fill-opacity:1;fill-rule:nonzero;stroke:none"
         d="m 2602.21,330.641 h 241.7 V 279.414 H 2659.49 V 194.66 h 163.46 V 143.43 H 2659.49 V 55.8789 h 186.75 V 4.64844 H 2602.21 V 330.641" /><path
         id="path30"
         style="fill:#398088;fill-opacity:1;fill-rule:nonzero;stroke:none"
         d="m 2914.24,330.641 h 57.28 V 166.719 l 155.08,163.922 h 70.79 L 3061.4,190.469 3203.44,4.64844 h -69.86 L 3022.29,151.352 2971.52,99.1914 V 4.64844 h -57.28 V 330.641" /><path
         id="path32"
         style="fill:#398088;fill-opacity:1;fill-rule:nonzero;stroke:none"
         d="m 3243.04,330.641 h 241.7 V 279.414 H 3300.32 V 194.66 h 163.46 V 143.43 H 3300.32 V 55.8789 h 186.75 V 4.64844 H 3243.04 V 330.641" /><path
         id="path34"
         style="fill:#398088;fill-opacity:1;fill-rule:nonzero;stroke:none"
         d="m 3696.18,169.039 c 40.98,0 67.06,21.43 67.06,54.492 v 0.93 c 0,34.93 -25.15,54.023 -67.53,54.023 h -83.36 V 169.039 Z m -141.11,161.602 h 145.3 c 40.98,0 73.12,-12.106 94.07,-32.598 17.23,-17.695 27.01,-41.914 27.01,-70.313 v -0.941 c 0,-53.551 -32.13,-85.687 -77.3,-98.73 L 3832.16,4.64844 h -67.99 l -80.1,113.64056 h -71.72 V 4.64844 h -57.28 V 330.641" /><path
         id="path36"
         style="fill:#398088;fill-opacity:1;fill-rule:nonzero;stroke:none"
         d="M 1825.03,89.4805 1748.87,17.2617 C 1734.81,3.92969 1712.61,4.51953 1699.28,18.5781 L 1483.81,245.789 c -13.34,14.063 -12.75,36.262 1.31,49.598 l 76.16,72.218 c 14.06,13.333 36.26,12.743 49.59,-1.316 l 215.47,-227.211 c 13.34,-14.058 12.75,-36.269 -1.31,-49.5975" /><path
         id="path38"
         style="fill:#398088;fill-opacity:1;fill-rule:nonzero;stroke:none"
         d="m 1546.65,402.668 -102.38,-97.102 c -14.06,-13.328 -36.27,-12.738 -49.6,1.321 l -16.23,17.109 c -13.33,14.059 -12.74,36.266 1.32,49.594 l 102.38,97.094 c 14.06,13.336 36.27,12.746 49.6,-1.313 l 16.22,-17.109 c 13.34,-14.059 12.75,-36.266 -1.31,-49.594" /><path
         id="path40"
         style="fill:#398088;fill-opacity:1;fill-rule:nonzero;stroke:none"
         d="m 1087.99,443.359 c -193.08,0 -349.607,156.524 -349.607,349.61 0,193.086 156.527,349.611 349.607,349.611 193.09,0 349.62,-156.525 349.62,-349.611 0,-193.086 -156.53,-349.61 -349.62,-349.61 z m 0,824.611 c -262.33,0 -474.998,-212.67 -474.998,-475.001 0,-262.332 212.668,-475 474.998,-475 262.34,0 475,212.668 475,475 0,262.331 -212.66,475.001 -475,475.001" /><path
         id="path42"
         style="fill:#398088;fill-opacity:1;fill-rule:nonzero;stroke:none"
         d="m 1087.99,508.469 c -157.123,0 -284.494,127.379 -284.494,284.5 0,157.125 127.371,284.501 284.494,284.501 157.13,0 284.51,-127.376 284.51,-284.501 0,-157.121 -127.38,-284.5 -284.51,-284.5 z m 0,595.191 c -171.588,0 -310.689,-139.097 -310.689,-310.691 0,-171.59 139.101,-310.692 310.689,-310.692 171.59,0 310.7,139.102 310.7,310.692 0,171.594 -139.11,310.691 -310.7,310.691" /><path
         id="path44"
         style="fill:#398088;fill-opacity:1;fill-rule:nonzero;stroke:none"
         d="m 872.113,726.113 c -6.883,21.692 -10.597,44.797 -10.597,68.766 0,125.391 101.648,227.031 227.034,227.031 27.87,0 105.54,-14.91 79.23,-14.2 -288.862,7.84 -295.667,-281.597 -295.667,-281.597" /></g></g></svg>